<svg xmlns="http://www.w3.org/2000/svg" viewBox="0 0 48 48"><path fill="#666666" d="M36.628 8.838a2.821 2.821 0 10-.001 5.643 2.821 2.821 0 00.001-5.643zm-12.544 3.619c-6.537 0-11.857 5.317-11.857 11.853s5.32 11.854 11.857 11.854c6.536 0 11.852-5.318 11.852-11.854S30.62 12.457 24.084 12.457zm0 19.446c-4.189 0-7.594-3.407-7.594-7.594 0-4.186 3.405-7.594 7.594-7.594 4.185 0 7.592 3.408 7.592 7.594 0 4.187-3.407 7.594-7.592 7.594zM48 14.458C48 6.474 41.527 0 33.543 0H14.459C6.473 0 0 6.474 0 14.458v19.084C0 41.528 6.473 48 14.459 48h19.083C41.527 48 48 41.528 48 33.542V14.458zm-4.528 19.084c0 5.483-4.445 9.93-9.929 9.93H14.459c-5.483 0-9.929-4.446-9.929-9.93V14.458c0-5.484 4.445-9.93 9.929-9.93h19.083c5.483 0 9.929 4.446 9.929 9.93v19.084z"/></svg>